<svg xmlns="http://www.w3.org/2000/svg" xmlns:xlink="http://www.w3.org/1999/xlink" viewBox="0,0,256,256" width="400px" height="400px" fill-rule="nonzero"><g fill-opacity="0.98824" fill="#e6f4f3" fill-rule="nonzero" stroke="none" stroke-width="1" stroke-linecap="butt" stroke-linejoin="miter" stroke-miterlimit="10" stroke-dasharray="" stroke-dashoffset="0" font-family="none" font-weight="none" font-size="none" text-anchor="none" style="mix-blend-mode: normal"><path d="M0,256v-256h256v256z" id="bgRectangle"></path></g><g fill="#010101" fill-rule="nonzero" stroke="none" stroke-width="1" stroke-linecap="butt" stroke-linejoin="miter" stroke-miterlimit="10" stroke-dasharray="" stroke-dashoffset="0" font-family="none" font-weight="none" font-size="none" text-anchor="none" style="mix-blend-mode: normal"><g transform="scale(2.56,2.56)"><path d="M22.06055,19.48047c-3.91,0 -8.08992,0.16977 -12.41992,0.50977c-1.07,0.08 -1.87984,1.00031 -1.83984,2.07031c0.04,1.07 0.92,1.91992 2,1.91992c13.91,0.02 26.66836,1.70945 34.81836,4.43945c-2.49,-0.21 -5.00859,-0.33008 -7.55859,-0.33008c-19,0 -33.25961,5.82055 -33.84961,6.06055c-0.97,0.41 -1.46062,1.48047 -1.14062,2.48047c0.28,0.83 1.06039,1.36914 1.90039,1.36914c0.16,0 0.32023,-0.02055 0.49023,-0.06055c0.15,-0.04 16.02,-3.93945 32,-3.93945c2.06,0 4.03992,0.06945 5.91992,0.18945c-17.69,2.82 -30.92055,12.80102 -31.56055,13.29102c-0.84,0.65 -1.02945,1.82898 -0.43945,2.70898c0.39,0.57 1.0182,0.88086 1.6582,0.88086c0.35,0 0.70148,-0.09125 1.02149,-0.28125c0.19,-0.11 18.88898,-11.09961 37.70898,-11.09961c0.52,0 1.03102,0.00148 1.54102,0.02148h0.05859c-2.49,2.08 -5.75977,6.07961 -5.50977,12.59961c0.32,8.23 6.30008,13.17945 12.08008,14.43945c2.38,0.52 4.41109,0.64 6.37109,0.75c3.61,0.22 6.73961,0.39938 11.59961,3.10938c5.43,3.02 9.54047,10.97977 10.48047,20.25977c0.1,1.01 0.94875,1.79078 1.96875,1.80078h0.02148c1.01,0 1.85828,-0.75 1.98828,-1.75c0.06,-0.49 1.0618,-9.32023 -4.4082,-17.99023c2.05,1.85 3.79891,4.41945 4.37891,7.93945c0.16,0.96 1.0007,1.66992 1.9707,1.66992h0.0293c0.99,-0.02 1.82094,-0.74851 1.96094,-1.72852c0.03,-0.25 0.76875,-6.19133 -4.28125,-11.61133c-5.24,-5.63 -14.03992,-8.47852 -26.16992,-8.47852c-3.68,0 -6.52945,-1.00977 -8.43945,-3.00977c-2.1,-2.19 -2.74992,-5.27023 -2.66992,-7.24023c0.13,-3.15 2.65008,-6.83008 9.33008,-6.83008c3.65,0 10.19984,3.06852 13.33984,4.72852c0.2,1.1 0.65899,2.36 1.70898,3c0.28,0.18 0.59047,0.3107 0.98047,0.4707c1.14,0.49 3.05055,1.30031 5.31055,3.82031c0.39,0.43 0.94024,0.66016 1.49023,0.66016c0.38,0 0.75961,-0.11008 1.09961,-0.33008l3.00977,-1.98047c0.68,-0.45 1.02109,-1.25883 0.87109,-2.04883c-0.16,-0.79 -0.77055,-1.42008 -1.56055,-1.58008c-1.04,-0.22 -2.35055,-0.73063 -3.06055,-1.14062c-0.03,-0.46 -0.1707,-0.93086 -0.4707,-1.38086c-0.14,-0.21 -0.30828,-0.40867 -0.48828,-0.63867c-0.39,-0.46 -0.91133,-1.09078 -1.36133,-2.05078c-0.16,-0.33 -0.55867,-0.94984 -1.38867,-1.33984c0.23,-0.2 0.42883,-0.44047 0.54883,-0.73047c0.31,-0.75 0.14055,-1.60969 -0.43945,-2.17969c-8.66,-8.62 -16.02008,-10.42023 -16.33008,-10.49023c-0.15,-0.04 -0.30094,-0.06055 -0.46094,-0.06055c-0.82,0 -1.56914,0.51055 -1.86914,1.31055c-0.35,0.94 0.05922,2.0007 0.94922,2.4707c0.05,0.02 2.76008,1.43898 5.83008,3.45898h-0.05859c-0.46,0.03 -0.88117,0.23148 -1.20117,0.52148c-0.97,-0.38 -2.21031,-0.79148 -3.57031,-1.02148c-1.21,-0.21 -2.48938,-0.23977 -3.60937,-0.25977c-0.98,-0.02 -2.46961,-0.0593 -2.84961,-0.2793c-0.13,-0.11 -0.30047,-0.24086 -0.48047,-0.38086c-0.97,-0.72 -2.44047,-1.80851 -2.98047,-8.47852c-0.04,-0.54 -0.31023,-1.05063 -0.74023,-1.39063c-0.34,-0.28 -8.75852,-6.83984 -33.22851,-6.83984zM22.06055,21.48047c24.05,0 31.97852,6.40039 31.97852,6.40039c0.68,8.46 2.94094,9.2 4.21094,10.25c1.26,1.06 4.61937,0.47922 7.35938,0.94922c2.74,0.47 4.94141,1.74023 4.94141,1.74023l0.31836,-1.21094c0.88,2.07 3,2.78125 3,2.78125v-1.63086c0.79,1.9 3,3.21094 3,3.21094v-1.56055c0,0 0.7407,1.12969 1.4707,1.92969c0.74,0.81 1.51953,1.25977 1.51953,1.25977c0,0 0.49148,-0.11914 1.02148,-0.11914c0.5,0 1.04,0.10906 1.25,0.53906c0.76,1.63 1.68,2.48117 2,2.95117c0.31,0.47 0,1.0293 0,1.0293c0.52,0.98 3.2593,2.01984 4.7793,2.33984l-3.00977,1.98047c-3.22,-3.58 -5.96047,-4.17039 -6.73047,-4.65039c-0.78,-0.48 -0.90039,-2.56055 -0.90039,-2.56055c0,0 -9.73922,-5.46875 -15.19922,-5.46875c-8.05,0 -11.17008,4.82 -11.33008,8.75c-0.16,3.92 1.98938,12.33008 13.10938,12.33008c12.81,0 20.47094,3.29984 24.71094,7.83984c4.46,4.79 3.75977,9.97852 3.75977,9.97852c-1.95,-11.73 -15.20117,-14.10937 -15.20117,-14.10937c13.09,9.57 11.26172,24.24023 11.26172,24.24023c-0.89,-8.82 -4.81,-18.08055 -11.5,-21.81055c-7.96,-4.44 -11.94148,-2.62859 -18.52148,-4.05859c-4.77,-1.04 -10.21,-5.08055 -10.5,-12.56055c-0.35,-9.01 7.05078,-12.51953 7.05078,-12.51953l-3.39062,-9.69141c-6.54,-4.91 -23.81875,-8.02883 -42.71875,-8.04883c4.49,-0.34 8.56977,-0.5 12.25977,-0.5zM37.06055,30.08984c4.34,0 8.90937,0.31008 13.60938,1.08008c0,0.01 0.00953,0.00953 0.01953,0.01953l0.52148,2.16992c-4.65,-0.98 -9.71,-1.35937 -14.75,-1.35937c-16.43,0 -32.49023,4 -32.49023,4c0,0 14.26984,-5.91016 33.08984,-5.91016zM65.90039,32.38086c0.48,0.12 7.28961,1.93899 15.34961,9.95898h-1.68945c-3.94,-4.83 -13.09016,-9.65899 -13.66016,-9.95898zM51.46094,35.44922h0.07812l0.8418,2.26172c-0.54,-0.02 -1.07133,-0.02148 -1.61133,-0.02148c-19.31,0 -38.12875,11.03109 -38.71875,11.37109c0.55,-0.41 18.09016,-13.61133 39.41016,-13.61133zM81.91211,47.92969c0,0 -0.09,0.56856 0,0.72656c0.172,0.304 1.19922,0.7207 1.19922,0.7207z"></path></g></g></svg>